# xmcd
#
# Track frame offsets:
#	150
#	11441
#	25154
#	44956
#	55950
#	67059
#	78991
#	91668
#	103014
#	116167
#	127208
#	139930
#	154035
#	167583
#	178753
#	191412
#	205284
#	218680
#	233277
#	246545
#	265148
#
# Disc length: 3798 seconds
#
# Revision: 11
# Processed by: cddbd v1.4PL0 Copyright (c) Steve Scherf et al.
# Submitted via: EasyCDDAExtractor 5.1.0
#
DISCID=2d0ed415
DTITLE=alain barrière - l'éssentiel
DYEAR=1900
DGENRE=Blues
TTITLE0=cathy
TTITLE1=elle était si jolie
TTITLE2=ma vie
TTITLE3=je reviendrai d'al cantara
TTITLE4=la marie - joconde
TTITLE5=les guinguettes
TTITLE6=plus je t'entends
TTITLE7=longtemps
TTITLE8=les matins bleus
TTITLE9=avé maria
TTITLE10=j'aurais voulu
TTITLE11=je regrette ce temps
TTITLE12=mais je vous dis
TTITLE13=les sabots
TTITLE14=adieu la belle
TTITLE15=le temps d'une valse
TTITLE16=a regarder la mer
TTITLE17=emporte - moi
TTITLE18=rien qu'un homme
TTITLE19=toi
TTITLE20=bonus track - tu t'en vas ( avec noëlle cordier )
EXTD=
EXTT0=
EXTT1=
EXTT2=
EXTT3=
EXTT4=
EXTT5=
EXTT6=
EXTT7=
EXTT8=
EXTT9=
EXTT10=
EXTT11=
EXTT12=
EXTT13=
EXTT14=
EXTT15=
EXTT16=
EXTT17=
EXTT18=
EXTT19=
EXTT20=
PLAYORDER=
